<?xml version="1.0" standalone="no"?>
<!DOCTYPE svg PUBLIC "-//W3C//DTD SVG 20010904//EN"
 "http://www.w3.org/TR/2001/REC-SVG-20010904/DTD/svg10.dtd">
<svg version="1.0" xmlns="http://www.w3.org/2000/svg"
 width="277.000000pt" height="182.000000pt" viewBox="0 0 277.000000 182.000000"
 preserveAspectRatio="xMidYMid meet">

<g transform="translate(0.000000,182.000000) scale(0.100000,-0.100000)"
fill="#000000" stroke="none">
<path d="M0 1780 c0 -31 4 -40 17 -40 9 0 29 -12 45 -27 23 -22 30 -24 43 -13
8 7 25 10 39 6 35 -9 46 -71 17 -99 -17 -18 -24 -19 -46 -9 -21 10 -32 9 -55
-3 -16 -8 -36 -15 -45 -15 -13 0 -15 -22 -15 -155 l0 -155 25 0 c14 0 37 11
51 25 19 19 29 23 42 16 12 -6 24 -5 37 5 22 16 55 19 55 3 0 -5 4 -7 10 -4 5
3 10 22 10 41 0 33 28 74 51 74 28 0 49 -22 49 -53 0 -51 12 -62 46 -44 16 9
38 24 49 34 11 11 26 18 32 16 6 -2 14 1 17 6 4 6 4 105 0 221 l-7 210 -234 0
-233 0 0 -40z m293 -117 c7 -34 -17 -75 -38 -67 -9 4 -15 19 -15 38 0 55 43
78 53 29z"/>
<path d="M660 1660 c0 -88 3 -160 8 -159 4 0 21 19 37 42 30 41 125 101 224
141 l41 16 46 -45 c40 -37 45 -48 40 -71 -5 -18 -2 -32 11 -46 14 -16 15 -22
5 -39 -7 -11 -10 -29 -7 -40 7 -21 20 -21 98 -3 34 8 106 -18 136 -49 l21 -23
175 45 c100 26 168 48 158 52 -25 8 42 20 75 13 22 -5 24 -3 12 6 -12 9 -10
11 12 6 14 -3 41 -3 59 1 29 5 31 7 14 15 -15 6 -11 7 12 4 18 -3 81 3 140 14
156 29 233 38 233 28 0 -4 -19 -8 -42 -9 -31 0 -38 -3 -23 -8 33 -13 -419
-111 -513 -111 -24 0 -41 -3 -39 -7 3 -5 -18 -9 -45 -11 -28 -2 -66 -9 -86
-17 -19 -8 -48 -15 -64 -15 -46 0 -70 -17 -58 -40 5 -10 10 -41 10 -68 0 -48
0 -49 30 -44 17 2 30 0 29 -4 -1 -5 0 -11 1 -14 10 -26 6 -40 -11 -40 -10 0
-19 -4 -19 -9 0 -5 -7 -12 -16 -15 -11 -4 -15 0 -14 17 4 42 0 40 -25 -9 -16
-31 -21 -52 -15 -58 6 -6 10 -15 10 -20 0 -6 -7 -3 -14 7 -13 17 -15 16 -35
-12 -35 -49 -81 -76 -131 -77 -25 0 -65 -1 -90 -2 -43 -3 -44 -3 -25 -18 12
-9 34 -14 57 -12 20 2 36 -1 35 -6 -3 -16 52 -29 68 -16 22 18 18 29 -7 23
-20 -4 -21 -3 -5 7 9 6 22 8 28 4 6 -3 15 -1 19 6 5 8 15 10 26 6 14 -5 15 -9
6 -15 -8 -5 2 -12 30 -20 79 -24 77 -33 -12 -57 l-81 -22 -55 24 c-61 27 -88
31 -58 10 35 -26 5 -30 -45 -6 -29 13 -60 21 -75 18 -47 -9 -29 34 19 46 l30
8 -23 17 c-18 13 -22 23 -17 43 6 25 8 25 33 12 40 -20 142 2 126 27 -3 6 7
25 23 42 38 41 86 150 86 197 0 49 -11 80 -29 80 -8 0 -13 4 -10 8 2 4 -3 8
-12 8 -9 1 -26 4 -37 8 -19 6 -19 6 1 -4 11 -6 25 -26 32 -43 l12 -32 -26 33
c-14 17 -30 32 -36 32 -6 0 -4 -8 5 -18 10 -10 17 -24 17 -30 0 -21 -60 9 -85
43 -29 37 -57 122 -44 131 5 3 2 15 -6 27 -8 12 -15 30 -15 40 0 27 -24 30
-67 9 -52 -27 -70 -49 -78 -101 -5 -31 -19 -56 -47 -87 -46 -49 -54 -53 -63
-24 -3 11 -15 20 -26 20 -20 0 -24 -16 -9 -40 5 -9 5 -19 -2 -27 -6 -8 -8 -16
-5 -20 9 -8 -33 -44 -43 -38 -5 3 -10 -1 -13 -7 -3 -10 -7 -10 -20 1 -9 7 -26
11 -38 8 -19 -5 -19 -4 -6 11 14 15 14 21 -3 56 -29 64 -81 53 -85 -18 -1 -18
-6 -39 -10 -46 -6 -10 -4 -12 8 -7 10 3 17 2 17 -4 0 -14 -38 -68 -70 -98 -24
-23 -160 -93 -190 -98 -8 -1 -34 -5 -57 -9 -23 -3 -58 -3 -77 0 -29 6 -36 11
-36 30 0 23 -21 36 -63 36 -16 0 -17 -13 -15 -177 l3 -176 99 -68 c103 -70
113 -75 205 -102 54 -16 55 -16 87 8 18 14 42 25 54 25 11 0 23 7 26 15 4 9
13 14 22 13 8 -2 17 3 20 11 3 10 0 12 -11 8 -26 -10 0 38 29 54 28 15 34 55
7 45 -10 -4 1 12 23 35 63 63 89 25 39 -56 -27 -43 -32 -87 -12 -102 15 -11
114 -50 148 -58 25 -6 67 -61 55 -72 -3 -4 -6 -1 -6 5 0 7 -7 12 -16 12 -15 0
-15 -2 0 -25 24 -37 21 -53 -11 -49 -16 2 -36 1 -47 -2 -15 -5 -14 -9 13 -25
33 -20 41 -46 16 -55 -8 -4 -15 -14 -15 -24 0 -10 -6 -20 -13 -23 -20 -8 -68
4 -61 15 3 5 19 6 35 3 18 -4 29 -3 29 4 0 6 -7 11 -15 11 -8 0 -15 4 -15 9 0
5 -10 12 -22 14 -13 2 -1 5 25 6 52 1 63 22 14 27 -15 1 -36 5 -47 9 -11 3
-20 2 -20 -4 0 -5 10 -12 23 -14 l22 -4 -22 -2 c-13 0 -23 -6 -23 -12 0 -8
-13 -9 -40 -5 -22 3 -40 3 -40 -2 0 -11 -219 33 -233 47 -6 6 -23 11 -38 11
-15 0 -35 7 -43 16 -11 11 -25 14 -46 9 -16 -4 -37 -2 -47 4 -10 6 -12 11 -5
11 17 0 15 20 -3 20 -8 0 -15 7 -15 15 0 8 -10 20 -23 26 -12 7 -28 20 -35 30
-7 10 -26 27 -42 39 l-30 21 0 -235 c0 -211 2 -236 16 -236 12 0 15 -6 9 -22
-17 -56 -17 -68 -1 -74 9 -3 16 -11 16 -17 0 -7 -4 -7 -12 1 -22 22 -28 13
-28 -38 l0 -50 1385 0 1385 0 0 804 c0 758 -1 805 -17 809 -17 4 -17 5 0 6 9
0 17 8 17 17 0 12 -7 14 -30 9 -16 -4 -30 -4 -30 0 0 3 14 11 30 16 17 6 30
16 30 23 0 9 -17 10 -70 3 -42 -6 -67 -14 -63 -20 4 -6 1 -7 -6 -2 -7 4 -49 1
-94 -5 -60 -10 -76 -15 -62 -21 13 -6 5 -7 -20 -3 -26 4 -35 2 -27 -4 18 -12
-40 -24 -75 -15 -15 3 -24 2 -20 -3 3 -6 -17 -11 -45 -12 -56 -2 -58 5 -6 19
31 8 30 8 -7 3 -121 -15 -348 -63 -355 -74 -5 -8 -9 -9 -11 -1 -3 8 -66 -2
-199 -30 -222 -46 -270 -54 -270 -45 0 12 77 38 120 41 25 1 101 14 170 28 69
14 187 36 262 48 75 13 135 26 133 30 -3 3 9 9 26 13 40 8 29 24 -13 19 -74
-9 2 15 112 36 125 23 487 81 508 81 6 0 12 10 12 21 0 20 -4 21 -52 15 -37
-5 -48 -3 -38 4 10 6 -315 10 -1002 10 l-1018 0 0 -160z m1983 133 c-7 -2 -19
-2 -25 0 -7 3 -2 5 12 5 14 0 19 -2 13 -5z m-60 -10 c-7 -2 -21 -2 -30 0 -10
3 -4 5 12 5 17 0 24 -2 18 -5z m-203 -33 c-85 -15 -157 -26 -159 -25 -8 8 232
53 284 53 17 0 -40 -13 -125 -28z m-1605 0 c3 -5 1 -10 -4 -10 -6 0 -11 5 -11
10 0 6 2 10 4 10 3 0 8 -4 11 -10z m-6 -106 c-6 -8 -19 -14 -28 -13 -10 0 -12
2 -3 6 6 2 9 10 5 16 -4 7 0 8 11 4 10 -4 15 -3 11 3 -4 6 -3 20 2 33 7 21 8
21 11 -6 2 -16 -2 -35 -9 -43z m445 -6 c29 -41 -19 -75 -83 -59 -29 8 -40 43
-21 67 20 23 86 18 104 -8z m1323 6 c-3 -3 -12 -4 -19 -1 -8 3 -5 6 6 6 11 1
17 -2 13 -5z m-1762 -24 c-3 -5 -12 -10 -18 -10 -7 0 -6 4 3 10 19 12 23 12
15 0z m205 -87 c0 -37 -2 -64 -4 -62 -8 9 -13 138 -5 133 5 -3 9 -35 9 -71z
m887 51 c-3 -3 -12 -4 -19 -1 -8 3 -5 6 6 6 11 1 17 -2 13 -5z m-431 -53 c-8
-12 -124 -76 -155 -86 -34 -10 -18 10 27 36 26 14 30 18 12 14 -98 -25 -94
-17 10 19 79 26 115 32 106 17z m451 3 c-3 -3 -12 -4 -19 -1 -8 3 -5 6 6 6 11
1 17 -2 13 -5z m489 -93 c-16 -22 -33 -38 -38 -35 -5 3 -1 15 9 26 17 19 17
20 -2 34 -18 14 -20 13 -23 -7 -3 -16 -6 -19 -12 -9 -7 11 -11 11 -22 -1 -20
-20 -29 -47 -18 -54 6 -4 10 1 10 9 0 9 5 16 10 16 14 0 12 -13 -4 -36 -8 -10
-18 -16 -22 -12 -4 4 -13 3 -21 -4 -11 -8 -17 -7 -28 8 -14 18 -15 18 -9 0 6
-15 3 -17 -14 -12 -17 6 -21 4 -16 -9 4 -9 13 -14 20 -11 7 3 16 1 19 -4 4 -6
0 -10 -8 -10 -9 0 -14 -12 -15 -35 -1 -19 3 -35 9 -35 6 0 8 4 4 9 -3 5 -1 12
4 15 5 3 11 0 14 -8 5 -12 -12 -27 -35 -30 -15 -2 -58 -47 -53 -56 3 -6 1 -10
-5 -10 -16 0 -37 -23 -33 -36 2 -6 -2 -11 -9 -12 -7 -1 -37 -4 -65 -8 -29 -4
-53 -3 -53 2 0 13 86 134 106 148 13 10 14 15 4 21 -9 6 -11 4 -5 -5 5 -9 4
-11 -3 -6 -20 12 -13 31 18 49 17 10 30 25 30 33 0 8 10 14 23 15 12 0 16 3 9
6 -14 5 97 98 130 109 12 3 31 15 42 25 20 19 21 19 50 -10 l29 -30 -27 -40z
m-218 -14 c-9 -7 -50 -21 -92 -31 -55 -13 -77 -23 -81 -36 -3 -11 -12 -17 -19
-14 -18 7 -38 -21 -34 -48 4 -22 6 -21 46 20 50 51 64 55 28 8 -18 -24 -22
-36 -13 -39 7 -3 5 -6 -5 -6 -10 -1 -24 -15 -32 -33 -8 -18 -15 -27 -15 -19
-1 8 -10 24 -21 36 -11 11 -22 35 -26 52 -5 26 -3 32 16 38 44 14 12 14 -40 0
-74 -20 -77 -19 -49 11 51 55 111 72 254 73 83 0 97 -2 83 -12z m172 -36 c0
-6 -10 -22 -23 -37 -20 -23 -26 -25 -43 -15 -12 8 -13 11 -3 8 9 -3 26 7 40
24 26 32 29 34 29 20z m-616 -100 c-61 -58 -90 -111 -59 -111 12 0 13 -5 3
-27 -15 -36 -57 -73 -83 -73 -12 0 -25 -4 -30 -9 -6 -5 -23 -11 -40 -14 -27
-4 -26 -4 8 -6 30 -1 38 -5 35 -18 -8 -45 -152 -34 -146 11 2 12 6 23 9 26 3
3 24 32 47 66 50 73 136 156 177 171 32 11 127 41 135 42 3 0 -22 -26 -56 -58z
m-865 33 c22 -5 31 -12 29 -23 -4 -19 -38 -16 -53 4 -6 7 -19 15 -30 18 -19 4
-19 5 1 6 12 0 36 -2 53 -5z m74 -22 c-5 -21 -33 -32 -33 -13 0 11 31 44 36
39 2 -2 1 -14 -3 -26z m1322 18 c-3 -6 1 -7 9 -4 19 7 21 -7 4 -24 -19 -19
-28 -14 -28 13 0 14 5 25 11 25 5 0 7 -4 4 -10z m-845 -62 c0 -5 -6 -8 -12 -8
-7 0 -14 11 -14 26 -2 23 -1 24 12 7 7 -10 14 -21 14 -25z m-660 -17 c-6 -12
-8 -26 -5 -31 10 -16 -50 -190 -65 -190 -5 0 1 30 12 68 11 37 24 87 28 112
12 63 21 83 32 72 6 -6 6 -18 -2 -31z m170 13 c0 -2 -7 -4 -15 -4 -8 0 -15 4
-15 10 0 5 7 7 15 4 8 -4 15 -8 15 -10z m1284 -23 c3 -5 -1 -14 -8 -20 -12
-10 -14 -9 -11 6 2 10 4 19 4 21 2 5 10 2 15 -7z m-710 -26 c-7 -16 -24 -21
-24 -6 0 8 7 13 27 20 1 1 0 -6 -3 -14z m-64 -68 c0 -2 -10 -12 -22 -23 l-23
-19 19 23 c18 21 26 27 26 19z m-760 -47 c-13 -24 -50 -43 -111 -58 -26 -7
-54 -15 -63 -18 -13 -5 -17 -2 -14 12 3 18 75 51 163 74 17 4 31 8 33 9 1 1
-2 -8 -8 -19z m1200 -5 c0 -14 -135 -47 -250 -61 -85 -10 -56 2 60 25 58 12
121 25 140 30 45 12 50 12 50 6z m-1530 -48 c0 -7 -7 -22 -15 -34 -9 -12 -22
-42 -30 -65 -25 -75 -99 -217 -113 -218 -10 0 -11 7 -5 23 4 12 6 46 5 76 -3
48 0 57 23 75 14 12 28 32 30 46 9 49 27 77 58 93 40 20 47 20 47 4z m2385
-37 c-10 -11 -21 -17 -24 -14 -3 3 3 12 13 20 28 20 32 17 11 -6z m-2085 0 c0
-5 -14 -25 -31 -45 -24 -26 -27 -35 -15 -35 14 0 15 -4 6 -20 -6 -11 -15 -18
-21 -15 -5 4 -25 -3 -44 -15 -49 -31 -97 -43 -107 -27 -15 23 -8 35 25 41 56
11 131 55 155 91 23 36 32 43 32 25z m1176 1 c-13 -21 -201 -62 -341 -75 -83
-7 -59 0 155 43 102 21 186 39 188 40 2 0 1 -3 -2 -8z m-3 -38 c-7 -2 -19 -2
-25 0 -7 3 -2 5 12 5 14 0 19 -2 13 -5z m-1463 -118 c-13 -14 -31 -24 -40 -23
-8 1 -21 -1 -28 -6 -17 -10 -26 -1 -19 19 4 8 18 15 34 15 15 0 35 5 43 10 28
18 33 10 10 -15z m743 -12 c-7 -2 -19 -2 -25 0 -7 3 -2 5 12 5 14 0 19 -2 13
-5z m444 -28 c-11 -7 -26 -11 -34 -8 -12 5 -12 7 -1 14 7 5 22 9 33 9 19 -1
19 -1 2 -15z m-632 -55 c-3 -5 -11 -10 -16 -10 -6 0 -7 5 -4 10 3 6 11 10 16
10 6 0 7 -4 4 -10z m669 -61 c-7 -12 -35 -11 -53 0 -12 8 -12 12 -2 25 12 14
15 14 37 0 13 -9 21 -20 18 -25z m-1260 -321 c-16 -17 -19 -17 -27 -2 -11 19
8 35 30 27 11 -4 11 -9 -3 -25z m183 -40 c-3 -8 -6 -5 -6 6 -1 11 2 17 5 13 3
-3 4 -12 1 -19z m-7 -41 c0 -13 -6 -32 -14 -43 -13 -17 -13 -14 -3 24 13 47
17 52 17 19z m-130 -101 c8 -2 -11 -4 -43 -5 -32 0 -56 3 -53 7 4 7 57 6 96
-2z m-12 -133 c-10 -2 -28 -2 -40 0 -13 2 -5 4 17 4 22 1 32 -1 23 -4z"/>
<path d="M2357 1505 c10 -13 22 -25 27 -25 5 0 -1 11 -14 25 -30 32 -36 32
-13 0z"/>
<path d="M2311 1496 c-9 -11 -6 -13 16 -13 16 0 22 2 15 4 -6 3 -10 9 -6 14 9
14 -12 10 -25 -5z"/>
<path d="M2670 1744 l-75 -12 80 5 c44 3 84 9 90 14 11 11 3 10 -95 -7z"/>
<path d="M2553 1723 c9 -2 23 -2 30 0 6 3 -1 5 -18 5 -16 0 -22 -2 -12 -5z"/>
<path d="M2488 1713 c7 -3 16 -2 19 1 4 3 -2 6 -13 5 -11 0 -14 -3 -6 -6z"/>
<path d="M2360 1644 l-45 -14 40 6 c22 3 44 10 50 15 11 11 12 11 -45 -7z"/>
<path d="M2378 1623 c7 -3 16 -2 19 1 4 3 -2 6 -13 5 -11 0 -14 -3 -6 -6z"/>
<path d="M2088 1543 c7 -3 16 -2 19 1 4 3 -2 6 -13 5 -11 0 -14 -3 -6 -6z"/>
<path d="M1688 1483 c7 -3 16 -2 19 1 4 3 -2 6 -13 5 -11 0 -14 -3 -6 -6z"/>
<path d="M1210 960 c0 -5 5 -10 10 -10 6 0 10 5 10 10 0 6 -4 10 -10 10 -5 0
-10 -4 -10 -10z"/>
<path d="M1164 903 c20 -11 31 -12 39 -4 6 6 9 11 7 12 -3 0 -21 2 -40 4 l-35
3 29 -15z"/>
<path d="M431 626 c-13 -14 -18 -26 -13 -30 6 -3 20 7 32 24 25 36 13 40 -19
6z"/>
<path d="M540 600 c0 -5 10 -10 23 -10 18 0 19 2 7 10 -19 13 -30 13 -30 0z"/>
</g>
</svg>
